<svg id="Capa_1" enable-background="new 0 0 512 512" height="512" viewBox="0 0 512 512" width="512" xmlns="http://www.w3.org/2000/svg"><g id="G_2_"><path d="m496.05 224.21v206.43c-3.51 2.13-87.79 81.36-220.84 81.36-6.48 0-12.87-.17-19.16-.51-146.54-7.87-240.1-107.62-240.1-257.07 0-149.27 93.73-248.33 240.1-254.15 4.58-.18 9.22-.27 13.9-.27 203.36 0 212.67 140.17 222.95 164.45l-125.16 22.57-3.82-12.86c-11.94-40.06-46.19-63.05-93.97-63.05-4.76 0-9.39.18-13.9.53-71.07 5.52-109.97 54.37-109.97 138.98 0 91.5 38.91 144.18 109.97 149.77 4.19.33 8.5.5 12.92.5 37.92 0 75.54-16.56 98.92-32.32v-36.15h-111.3v-108.21z" fill="#6cf"/><g fill="#59abff"><path d="m496.05 224.21v206.43c-3.51 2.13-87.79 81.36-220.84 81.36-6.48 0-12.87-.17-19.16-.51v-111.1c4.19.33 8.5.5 12.92.5 37.92 0 75.54-16.56 98.92-32.32v-36.15h-111.3v-108.21z"/><path d="m492.9 164.45-125.16 22.57-3.82-12.86c-11.94-40.06-46.19-63.05-93.97-63.05-4.76 0-9.39.18-13.9.53v-111.37c4.58-.18 9.22-.27 13.9-.27 203.36 0 212.67 140.17 222.95 164.45z"/></g></g></svg>